<?xml version="1.0" encoding="utf-8"?>
<!-- Generator: Adobe Illustrator 24.3.0, SVG Export Plug-In . SVG Version: 6.00 Build 0)  -->
<svg version="1.1" id="Layer_1" xmlns="http://www.w3.org/2000/svg" xmlns:xlink="http://www.w3.org/1999/xlink" x="0px" y="0px"
	 viewBox="0 0 705 109.2" style="enable-background:new 0 0 705 109.2;" xml:space="preserve">
<style type="text/css">
	.st0{fill:#FFFFFF;}
	.st1{fill:#4CCF80;}
</style>
<path class="st0" d="M101.2,33.5h21.3c16,0,26.6,10.7,26.6,27.2c0,16.3-10.3,28.5-27,28.5h-20.9V33.5z M111.7,80.6h9.9
	c11.5,0,16.7-8.4,16.7-19.8c0-9.7-4.8-18.7-16.7-18.7h-10L111.7,80.6L111.7,80.6z"/>
<path class="st0" d="M197.1,64.5h-27v16h29.7l-1.3,8.6H160V33.5h38.3v8.6h-28.2v13.7h27V64.5z"/>
<path class="st0" d="M222.4,89.1l-19.8-55.6h11.2l8.8,26.4c2.6,7.9,4.9,15.1,6.1,20.5h0.2c1.1-5,3.7-12.4,6.4-20.3l9.2-26.6h10.7
	l-20.4,55.6H222.4z"/>
<path class="st1" d="M268.8,73.1c1.4,6,5.5,8.8,12.5,8.8c7.2,0,10.2-3.1,10.2-7.5c0-4.9-2.7-7.2-12.8-9.6
	c-14.4-3.4-18.5-8.6-18.5-16.2c0-9.2,6.9-15.8,19.8-15.8c14.2,0,20,7.8,20.8,15.7h-10.5c-0.7-3.9-3-7.8-10.5-7.8
	c-5.5,0-8.8,2.4-8.8,6.8c0,4.3,2.6,6.1,11.9,8.2c16.1,3.8,19.4,9.9,19.4,17.5c0,9.8-7.3,16.7-21.6,16.7c-14.1,0-21-7.2-22.3-16.8
	C258.3,73.1,268.8,73.1,268.8,73.1z"/>
<path class="st1" d="M312.5,33.5h10.4v22.2h24.6V33.5H358v55.6h-10.4V64.4h-24.6v24.8h-10.4L312.5,33.5L312.5,33.5z"/>
<path class="st1" d="M381.2,75l-4.9,14.2H366l19.2-55.6h13l20,55.6h-11L402.2,75C402.2,75,381.2,75,381.2,75z M399.8,66.3
	c-4.4-12.7-7.1-20.3-8.4-25h-0.1c-1.4,5.2-4.3,14.2-7.9,25H399.8z"/>
<path class="st1" d="M426.3,33.5h22.4c11.5,0,19.3,6.4,19.3,16.9c0,11.7-8.7,17.3-19.6,17.3h-11.6v21.5h-10.5V33.5z M436.7,59.2
	h10.4c6.3,0,10.2-2.7,10.2-8.6c0-6.1-4.3-8.7-9.9-8.7h-10.7V59.2z"/>
<path class="st1" d="M478.1,33.5h22.4c11.5,0,19.3,6.4,19.3,16.9c0,11.7-8.7,17.3-19.6,17.3h-11.6v21.5h-10.5V33.5z M488.6,59.2H499
	c6.3,0,10.2-2.7,10.2-8.6c0-6.1-4.3-8.7-9.9-8.7h-10.7V59.2z"/>
<path class="st1" d="M567.1,64.5h-27v16h29.7l-1.3,8.6H530V33.5h38.3v8.6h-28.2v13.7h27V64.5z"/>
<path class="st1" d="M589.3,66.1v23h-10.2V33.5h23.5c11.9,0,18.3,6.5,18.3,15.1c0,7.4-4.1,11.5-8.6,13.1c3.4,1.1,7.5,4.1,7.5,14v2.6
	c0,3.8,0,8.2,0.8,10.7h-10c-1-2.4-1.1-6.6-1.1-12.3v-0.9c0-6.7-1.8-9.8-11.1-9.8C598.4,66.1,589.3,66.1,589.3,66.1z M589.3,57.7
	h10.8c7.2,0,10.2-2.7,10.2-7.9c0-5-3.3-7.8-9.7-7.8h-11.2L589.3,57.7L589.3,57.7z"/>
<path class="st1" d="M638.3,73.1c1.3,6,5.5,8.8,12.5,8.8c7.2,0,10.2-3.1,10.2-7.5c0-4.9-2.7-7.2-12.8-9.6
	c-14.4-3.4-18.5-8.6-18.5-16.2c0-9.2,6.8-15.8,19.8-15.8c14.2,0,20,7.8,20.8,15.7h-10.5c-0.7-3.9-3-7.8-10.5-7.8
	c-5.5,0-8.8,2.4-8.8,6.8c0,4.3,2.6,6.1,11.9,8.2c16.1,3.8,19.3,9.9,19.3,17.5c0,9.8-7.3,16.7-21.7,16.7c-14.1,0-21-7.2-22.3-16.8
	C627.7,73.1,638.3,73.1,638.3,73.1z"/>
<g>
	<path class="st1" d="M63.6,81.2H40.7c-6.1,0-11-4.9-11-11V47.3c0-6.1,4.9-11,11-11h22.9c6.1,0,11,4.9,11,11v22.9
		C74.6,76.2,69.6,81.2,63.6,81.2z"/>
	<path class="st1" d="M87.1,98.8h-6.6c-2.9,0-5.3-2.4-5.3-5.3v-6.6c0-2.9,2.4-5.3,5.3-5.3h6.6c2.9,0,5.3,2.4,5.3,5.3v6.6
		C92.3,96.4,90,98.8,87.1,98.8z"/>
	<path class="st0" d="M64,95.4L64,95.4c-2.4,0-4.3-1.9-4.3-4.3l0,0c0-2.4,1.9-4.3,4.3-4.3l0,0c2.4,0,4.3,1.9,4.3,4.3l0,0
		C68.3,93.5,66.4,95.4,64,95.4z"/>
	<path class="st0" d="M83.7,77.7h-0.2c-2.3,0-4.2-1.9-4.2-4.2v-0.2c0-2.3,1.9-4.2,4.2-4.2h0.2c2.3,0,4.2,1.9,4.2,4.2v0.2
		C87.9,75.8,86,77.7,83.7,77.7z"/>
</g>
</svg>
